{
.appVersion = "983";
copyright = "Copyright © 2017 Adobe Systems Incorporated (http://www.adobe.com/).";
customParameters = (
{
name = description;
value = "Dr. Ken Lunde (project architect, glyph set definition & overall production); Masataka HATTORI 服部正貴 (production & ideograph elements)";
},
{
name = license;
value = "This Font Software is licensed under the SIL Open Font License, Version 1.1. This Font Software is distributed on an \"AS IS\" BASIS, WITHOUT WARRANTIES OR CONDITIONS OF ANY KIND, either express or implied. See the SIL Open Font License for the specific language, permissions and limitations governing your use of this Font Software.";
},
{
name = licenseURL;
value = "http://scripts.sil.org/OFL";
},
{
name = vendorID;
value = GOOG;
},
{
name = panose;
value = (
2,
2,
2,
0,
0,
0,
0,
0,
0,
0
);
},
{
name = unicodeRanges;
value = (
0,
1,
7,
28,
29,
36,
42,
43,
44,
45,
48,
49,
50,
51,
52,
54,
55,
56,
57,
59,
61,
65,
66,
68
);
},
{
name = codePageRanges;
value = (
1252,
1250,
1251,
1258,
932,
936,
949,
1361
);
},
{
name = ROS;
value = "Adobe-Identity-0";
},
{
name = glyphOrder;
value = (
.notdef,
space
);
}
);
date = "2017-03-21 12:16:30 +0000";
designer = "Ryoko NISHIZUKA 西塚涼子 (kana & ideographs); Frank Grießhammer (Latin, Greek & Cyrillic); Wenlong ZHANG 张文龙 (bopomofo); Sandoll Communications 산돌커뮤니케이션, Soohyun PARK 박수현, Yejin WE 위예진 & Donghoon HAN 한동훈 (hangul elements, letters & syllables)";
designerURL = "http://www.adobe.com/type/";
familyName = "Yaku Han MP s";
fontMaster = (
{
alignmentZones = (
"{1900, 0}",
"{1100, 0}",
"{1100, 0}",
"{1100, 0}",
"{1100, 0}",
"{1100, 0}",
"{1100, 0}",
"{1100, 0}",
"{1100, 0}",
"{1100, 0}",
"{1100, 0}",
"{1100, 0}",
"{797, 0}",
"{794, 0}",
"{746, 18}",
"{746, 18}",
"{746, 18}",
"{746, 18}",
"{746, 0}",
"{723, 16}",
"{699, 14}",
"{521, 17}",
"{521, 17}",
"{521, 0}",
"{507, 14}",
"{0, 0}",
"{0, -14}",
"{0, -15}",
"{0, -18}",
"{0, -18}",
"{0, -18}",
"{0, -18}",
"{-171, 0}",
"{-176, 0}",
"{-195, 0}",
"{-250, 0}",

glyphs = (
{
glyphname = .notdef;
lastChange = "2017-04-16 03:13:08 +0000";
layers = (
{
layerId = "074C26A5-088B-4E92-A4A6-311E67C9A3CC";
paths = (
{
closed = 1;
nodes = (
"100 -120 LINE",
"900 -120 LINE",
"900 880 LINE",
"100 880 LINE"
);
},
{
closed = 1;
nodes = (
"500 421 LINE",
"182 830 LINE",
"818 830 LINE"
);
},
{
closed = 1;
nodes = (
"532 380 LINE",
"850 789 LINE",
"850 -29 LINE"
);
},
{
closed = 1;
nodes = (
"182 -70 LINE",
"500 339 LINE",
"818 -70 LINE"
);
},
{
closed = 1;
nodes = (
"150 789 LINE",
"468 380 LINE",
"150 -29 LINE"
);
}
);
vertWidth = 1000;
width = 1000;
}
);
note = .notdef;
},
{
glyphname = ellipsis;
lastChange = "2017-04-16 03:13:08 +0000";
layers = (
{
layerId = "074C26A5-088B-4E92-A4A6-311E67C9A3CC";
paths = (
{
closed = 1;
nodes = (
"197 325 OFFCURVE",
"222 350 OFFCURVE",
"222 380 CURVE SMOOTH",
"222 410 OFFCURVE",
"197 435 OFFCURVE",
"167 435 CURVE SMOOTH",
"137 435 OFFCURVE",
"112 410 OFFCURVE",
"112 380 CURVE SMOOTH",
"112 350 OFFCURVE",
"137 325 OFFCURVE",
"167 325 CURVE SMOOTH"
);
},
{
closed = 1;
nodes = (
"530 325 OFFCURVE",
"555 350 OFFCURVE",
"555 380 CURVE SMOOTH",
"555 410 OFFCURVE",
"530 435 OFFCURVE",
"500 435 CURVE SMOOTH",
"470 435 OFFCURVE",
"445 410 OFFCURVE",
"445 380 CURVE SMOOTH",
"445 350 OFFCURVE",
"470 325 OFFCURVE",
"500 325 CURVE SMOOTH"
);
},
{
closed = 1;
nodes = (
"863 325 OFFCURVE",
"888 350 OFFCURVE",
"888 380 CURVE SMOOTH",
"888 410 OFFCURVE",
"863 435 OFFCURVE",
"833 435 CURVE SMOOTH",
"803 435 OFFCURVE",
"778 410 OFFCURVE",
"778 380 CURVE SMOOTH",
"778 350 OFFCURVE",
"803 325 OFFCURVE",
"833 325 CURVE SMOOTH"
);
}
);
vertWidth = 1000;
width = 1000;
}
);
note = ellipsis;
unicode = 2026;
},
{
glyphname = blacklenticularbracketleft;
lastChange = "2017-04-16 03:15:03 +0000";
layers = (
{
layerId = "074C26A5-088B-4E92-A4A6-311E67C9A3CC";
paths = (
{
closed = 1;
nodes = (
"543 -63 LINE",
"385 8 OFFCURVE",
"280 161 OFFCURVE",
"280 380 CURVE SMOOTH",
"280 599 OFFCURVE",
"385 752 OFFCURVE",
"543 823 CURVE",
"543 840 LINE",
"200 840 LINE",
"200 -80 LINE",
"543 -80 LINE"
);
}
);
vertWidth = 1000;
width = 573;
}
);
note = blacklenticularbracketleft;
unicode = 3010;
},
{
glyphname = blacklenticularbracketright;
lastChange = "2017-04-16 03:15:16 +0000";
layers = (
{
layerId = "074C26A5-088B-4E92-A4A6-311E67C9A3CC";
paths = (
{
closed = 1;
nodes = (
"30 -80 LINE",
"373 -80 LINE",
"373 840 LINE",
"30 840 LINE",
"30 823 LINE",
"188 752 OFFCURVE",
"293 599 OFFCURVE",
"293 380 CURVE SMOOTH",
"293 161 OFFCURVE",
"188 8 OFFCURVE",
"30 -63 CURVE"
);
}
);
vertWidth = 1000;
width = 573;
}
);
note = blacklenticularbracketright;
unicode = 3011;
},
{
glyphname = braceleft.full;
lastChange = "2017-04-16 03:15:03 +0000";
layers = (
{
layerId = "074C26A5-088B-4E92-A4A6-311E67C9A3CC";
paths = (
{
closed = 1;
nodes = (
"587 830 LINE",
"587 865 LINE",
"531 865 LINE SMOOTH",
"390 865 OFFCURVE",
"331 815 OFFCURVE",
"331 726 CURVE SMOOTH",
"331 642 OFFCURVE",
"355 554 OFFCURVE",
"355 501 CURVE SMOOTH",
"355 445 OFFCURVE",
"316 410 OFFCURVE",
"200 397 CURVE",
"200 364 LINE",
"316 350 OFFCURVE",
"355 315 OFFCURVE",
"355 260 CURVE SMOOTH",
"355 207 OFFCURVE",
"331 119 OFFCURVE",
"331 34 CURVE SMOOTH",
"331 -54 OFFCURVE",
"390 -104 OFFCURVE",
"531 -104 CURVE SMOOTH",
"587 -104 LINE",
"587 -70 LINE",
"529 -67 LINE SMOOTH",
"416 -61 OFFCURVE",
"384 -30 OFFCURVE",
"384 40 CURVE SMOOTH",
"384 123 OFFCURVE",
"394 191 OFFCURVE",
"394 252 CURVE SMOOTH",
"394 311 OFFCURVE",
"364 363 OFFCURVE",
"276 380 CURVE",
"364 398 OFFCURVE",
"394 449 OFFCURVE",
"394 508 CURVE SMOOTH",
"394 569 OFFCURVE",
"384 637 OFFCURVE",
"384 721 CURVE SMOOTH",
"384 791 OFFCURVE",
"416 823 OFFCURVE",
"529 828 CURVE SMOOTH"
);
}
);
vertWidth = 1000;
width = 617;
}
);
note = braceleft.full;
unicode = FF5B;
},
{
glyphname = braceright.full;
lastChange = "2017-04-16 03:15:16 +0000";
layers = (
{
layerId = "074C26A5-088B-4E92-A4A6-311E67C9A3CC";
paths = (
{
closed = 1;
nodes = (
"417 397 LINE",
"301 411 OFFCURVE",
"262 446 OFFCURVE",
"262 501 CURVE SMOOTH",
"262 554 OFFCURVE",
"286 642 OFFCURVE",
"286 727 CURVE SMOOTH",
"286 815 OFFCURVE",
"227 865 OFFCURVE",
"86 865 CURVE SMOOTH",
"30 865 LINE",
"30 831 LINE",
"88 828 LINE SMOOTH",
"201 822 OFFCURVE",
"233 791 OFFCURVE",
"233 721 CURVE SMOOTH",
"233 638 OFFCURVE",
"223 570 OFFCURVE",
"223 509 CURVE SMOOTH",
"223 450 OFFCURVE",
"253 398 OFFCURVE",
"341 381 CURVE",
"253 363 OFFCURVE",
"223 312 OFFCURVE",
"223 253 CURVE SMOOTH",
"223 192 OFFCURVE",
"233 124 OFFCURVE",
"233 40 CURVE SMOOTH",
"233 -30 OFFCURVE",
"201 -62 OFFCURVE",
"88 -67 CURVE SMOOTH",
"30 -69 LINE",
"30 -104 LINE",
"86 -104 LINE SMOOTH",
"227 -104 OFFCURVE",
"286 -54 OFFCURVE",
"286 35 CURVE SMOOTH",
"286 119 OFFCURVE",
"262 207 OFFCURVE",
"262 260 CURVE SMOOTH",
"262 316 OFFCURVE",
"301 351 OFFCURVE",
"417 364 CURVE"
);
}
);
vertWidth = 1000;
width = 617;
}
);
note = braceright.full;
unicode = FF5D;
},
{
glyphname = cornerbracketleft;
lastChange = "2017-04-16 03:15:03 +0000";
layers = (
{
layerId = "074C26A5-088B-4E92-A4A6-311E67C9A3CC";
paths = (
{
closed = 1;
nodes = (
"200 186 LINE",
"236 186 LINE",
"236 806 LINE",
"500 806 LINE",
"500 840 LINE",
"200 840 LINE"
);
}
);
vertWidth = 1000;
width = 530;
}
);
note = cornerbracketleft;
unicode = 300C;
},
{
glyphname = cornerbracketright;
lastChange = "2017-04-16 03:15:16 +0000";
layers = (
{
layerId = "074C26A5-088B-4E92-A4A6-311E67C9A3CC";
paths = (
{
closed = 1;
nodes = (
"330 574 LINE",
"294 574 LINE",
"294 -46 LINE",
"30 -46 LINE",
"30 -80 LINE",
"330 -80 LINE"
);
}
);
vertWidth = 1000;
width = 530;
}
);
note = cornerbracketright;
unicode = 300D;
},
{
glyphname = dblanglebracketleft;
lastChange = "2017-04-16 03:15:03 +0000";
layers = (
{
layerId = "074C26A5-088B-4E92-A4A6-311E67C9A3CC";
paths = (
{
closed = 1;
nodes = (
"240 380 LINE",
"495 825 LINE",
"466 843 LINE",
"200 380 LINE",
"466 -83 LINE",
"495 -65 LINE"
);
},
{
closed = 1;
nodes = (
"383 380 LINE",
"638 825 LINE",
"609 843 LINE",
"343 380 LINE",
"609 -83 LINE",
"638 -65 LINE"
);
}
);
vertWidth = 1000;
width = 668;
}
);
note = dblanglebracketleft;
unicode = 300A;
},
{
glyphname = dblanglebracketright;
lastChange = "2017-04-16 03:15:16 +0000";
layers = (
{
layerId = "074C26A5-088B-4E92-A4A6-311E67C9A3CC";
paths = (
{
closed = 1;
nodes = (
"202 -83 LINE",
"468 380 LINE",
"202 843 LINE",
"173 825 LINE",
"428 380 LINE",
"173 -65 LINE"
);
},
{
closed = 1;
nodes = (
"59 -83 LINE",
"325 380 LINE",
"59 843 LINE",
"30 825 LINE",
"285 380 LINE",
"30 -65 LINE"
);
}
);
vertWidth = 1000;
width = 668;
}
);
note = dblanglebracketright;
unicode = 300B;
},
{
glyphname = tortoiseshellbracketleft;
lastChange = "2017-04-16 03:15:03 +0000";
layers = (
{
layerId = "074C26A5-088B-4E92-A4A6-311E67C9A3CC";
paths = (
{
closed = 1;
nodes = (
"433 -86 LINE",
"449 -55 LINE",
"236 44 LINE",
"236 716 LINE",
"449 815 LINE",
"433 846 LINE",
"200 737 LINE",
"200 23 LINE"
);
}
);
vertWidth = 1000;
width = 479;
}
);
note = tortoiseshellbracketleft;
unicode = 3014;
},
{
glyphname = tortoiseshellbracketright;
lastChange = "2017-04-16 03:15:16 +0000";
layers = (
{
layerId = "074C26A5-088B-4E92-A4A6-311E67C9A3CC";
paths = (
{
closed = 1;
nodes = (
"46 -86 LINE",
"279 23 LINE",
"279 737 LINE",
"46 846 LINE",
"30 815 LINE",
"243 715 LINE",
"243 45 LINE",
"30 -55 LINE"
);
}
);
vertWidth = 1000;
width = 479;
}
);
note = tortoiseshellbracketright;
unicode = 3015;
},
{
glyphname = whitecornerbracketleft;
lastChange = "2017-04-16 03:15:03 +0000";
layers = (
{
layerId = "074C26A5-088B-4E92-A4A6-311E67C9A3CC";
paths = (
{
closed = 1;
nodes = (
"561 695 LINE",
"561 841 LINE",
"200 841 LINE",
"200 176 LINE",
"350 176 LINE",
"350 695 LINE"
);
},
{
closed = 1;
nodes = (
"533 813 LINE",
"533 723 LINE",
"322 723 LINE",
"322 204 LINE",
"228 204 LINE",
"228 813 LINE"
);
}
);
vertWidth = 1000;
width = 591;
}
);
note = whitecornerbracketleft;
unicode = 300E;
},
{
glyphname = whitecornerbracketright;
lastChange = "2017-04-16 03:15:16 +0000";
layers = (
{
layerId = "074C26A5-088B-4E92-A4A6-311E67C9A3CC";
paths = (
{
closed = 1;
nodes = (
"30 66 LINE",
"30 -80 LINE",
"391 -80 LINE",
"391 584 LINE",
"241 584 LINE",
"241 66 LINE"
);
},
{
closed = 1;
nodes = (
"58 -52 LINE",
"58 38 LINE",
"269 38 LINE",
"269 556 LINE",
"363 556 LINE",
"363 -52 LINE"
);
}
);
vertWidth = 1000;
width = 591;
}
);
note = whitecornerbracketright;
unicode = 300F;
},
{
glyphname = whitelenticularbracketleft;
lastChange = "2017-04-16 03:15:03 +0000";
layers = (
{
layerId = "074C26A5-088B-4E92-A4A6-311E67C9A3CC";
paths = (
{
closed = 1;
nodes = (
"552 -58 LINE",
"403 5 OFFCURVE",
"292 161 OFFCURVE",
"292 380 CURVE SMOOTH",
"292 599 OFFCURVE",
"403 755 OFFCURVE",
"552 818 CURVE",
"552 840 LINE",
"200 840 LINE",
"200 -80 LINE",
"552 -80 LINE"
);
},
{
closed = 1;
nodes = (
"228 -52 LINE",
"228 812 LINE",
"481 812 LINE",
"396 760 OFFCURVE",
"264 628 OFFCURVE",
"264 380 CURVE SMOOTH",
"264 132 OFFCURVE",
"396 0 OFFCURVE",
"481 -52 CURVE"
);
}
);
vertWidth = 1000;
width = 582;
}
);
note = whitelenticularbracketleft;
unicode = 3016;
},
{
glyphname = whitelenticularbracketright;
lastChange = "2017-04-16 03:15:16 +0000";
layers = (
{
layerId = "074C26A5-088B-4E92-A4A6-311E67C9A3CC";
paths = (
{
closed = 1;
nodes = (
"382 -80 LINE",
"382 840 LINE",
"30 840 LINE",
"30 818 LINE",
"179 755 OFFCURVE",
"290 599 OFFCURVE",
"290 380 CURVE SMOOTH",
"290 161 OFFCURVE",
"179 5 OFFCURVE",
"30 -58 CURVE",
"30 -80 LINE"
);
},
{
closed = 1;
nodes = (
"318 628 OFFCURVE",
"186 760 OFFCURVE",
"101 812 CURVE",
"354 812 LINE",
"354 -52 LINE",
"101 -52 LINE",
"186 0 OFFCURVE",
"318 132 OFFCURVE",
"318 380 CURVE SMOOTH"
);
}
);
vertWidth = 1000;
width = 582;
}
);
note = whitelenticularbracketright;
unicode = 3017;
},
{
glyphname = bracketleft.full;
lastChange = "2017-04-16 03:15:03 +0000";
layers = (
{
layerId = "074C26A5-088B-4E92-A4A6-311E67C9A3CC";
paths = (
{
closed = 1;
nodes = (
"200 -80 LINE",
"450 -80 LINE",
"450 -46 LINE",
"236 -46 LINE",
"236 806 LINE",
"450 806 LINE",
"450 840 LINE",
"200 840 LINE"
);
}
);
vertWidth = 1000;
width = 480;
}
);
note = bracketleft.full;
unicode = FF3B;
},
{
glyphname = bracketright.full;
lastChange = "2017-04-16 03:15:16 +0000";
layers = (
{
layerId = "074C26A5-088B-4E92-A4A6-311E67C9A3CC";
paths = (
{
closed = 1;
nodes = (
"280 -80 LINE",
"280 840 LINE",
"30 840 LINE",
"30 806 LINE",
"244 806 LINE",
"244 -46 LINE",
"30 -46 LINE",
"30 -80 LINE"
);
}
);
vertWidth = 1000;
width = 480;
}
);
note = bracketright.full;
unicode = FF3D;
},
{
glyphname = parenleft.full;
lastChange = "2017-04-16 03:15:03 +0000";
layers = (
{
layerId = "074C26A5-088B-4E92-A4A6-311E67C9A3CC";
paths = (
{
closed = 1;
nodes = (
"200 140 OFFCURVE",
"332 0 OFFCURVE",
"462 -86 CURVE",
"481 -65 LINE",
"363 27 OFFCURVE",
"253 173 OFFCURVE",
"253 380 CURVE SMOOTH",
"253 587 OFFCURVE",
"363 733 OFFCURVE",
"481 825 CURVE",
"462 846 LINE",
"332 760 OFFCURVE",
"200 620 OFFCURVE",
"200 380 CURVE SMOOTH"
);
}
);
vertWidth = 1000;
width = 511;
}
);
note = parenleft.full;
unicode = FF08;
},
{
glyphname = parenright.full;
lastChange = "2017-04-16 03:15:16 +0000";
layers = (
{
layerId = "074C26A5-088B-4E92-A4A6-311E67C9A3CC";
paths = (
{
closed = 1;
nodes = (
"30 825 LINE",
"148 733 OFFCURVE",
"258 587 OFFCURVE",
"258 380 CURVE SMOOTH",
"258 173 OFFCURVE",
"148 27 OFFCURVE",
"30 -65 CURVE",
"49 -86 LINE",
"179 0 OFFCURVE",
"311 140 OFFCURVE",
"311 380 CURVE SMOOTH",
"311 620 OFFCURVE",
"179 760 OFFCURVE",
"49 846 CURVE"
);
}
